HIERARCHY
ROOT ui
{
	 OFFSET 0 0 0
	 CHANNELS 3 XPosition YPosition Z Position
	 EndSite
	 {
	 OFFSET 0 -1 0
	 }
}
ROOT li
{
	 OFFSET 0 0 0
	 CHANNELS 3 XPosition YPosition Z Position
	 EndSite
	 {
	 OFFSET 0 -1 0
	 }
}
ROOT ul
{
	 OFFSET 0 0 0
	 CHANNELS 3 XPosition YPosition Z Position
	 EndSite
	 {
	 OFFSET 0 -1 0
	 }
}
ROOT ll
{
	 OFFSET 0 0 0
	 CHANNELS 3 XPosition YPosition Z Position
	 EndSite
	 {
	 OFFSET 0 -1 0
	 }
}
ROOT tt
{
	 OFFSET 0 0 0
	 CHANNELS 3 XPosition YPosition Z Position
	 EndSite
	 {
	 OFFSET 0 -1 0
	 }
}
ROOT tb
{
	 OFFSET 0 0 0
	 CHANNELS 3 XPosition YPosition Z Position
	 EndSite
	 {
	 OFFSET 0 -1 0
	 }
}
ROOT td
{
	 OFFSET 0 0 0
	 CHANNELS 3 XPosition YPosition Z Position
	 EndSite
	 {
	 OFFSET 0 -1 0
	 }
}
ROOT v
{
	 OFFSET 0 0 0
	 CHANNELS 3 XPosition YPosition Z Position
	 EndSite
	 {
	 OFFSET 0 -1 0
	 }
}
ROOT bn
{
	 OFFSET 0 0 0
	 CHANNELS 3 XPosition YPosition Z Position
	 EndSite
	 {
	 OFFSET 0 -1 0
	 }
}
MOTION
Frames: 21
Frame Time: 0.002
-0.0024056971073150636	0.004809676170349121	0		0.5035595092773437	-2.38320703125	0		-0.87821435546875	0.20996371459960939	0		-0.5721624145507812	-2.842888916015625	0		1.670995361328125	-0.4420390625	0		3.29179638671875	-0.14056553649902342	0		4.2587890625	-0.12407321166992187	0		6.0103486328125	0.4554573974609375	0		-0.21974551391601563	5.89918994140625	0		
-0.005869373798370361	0.0010946320295333863	0		0.501033447265625	-2.38494384765625	0		-0.8886419677734375	0.21131716918945312	0		-0.548667724609375	-2.83874609375	0		1.707434326171875	-0.46004232788085936	0		3.279446533203125	-0.12433003997802734	0		4.25240234375	-0.11489689636230468	0		6.01792236328125	0.455490478515625	0		-0.22000250244140626	5.8994638671875	0		
-0.006327216148376465	0.0013836430311203003	0		0.5244594116210938	-2.39181298828125	0		-0.88909326171875	0.21163363647460937	0		-0.5512257080078125	-2.84042822265625	0		1.6448919677734375	-0.4714378967285156	0		3.27494921875	-0.13011930847167968	0		4.25194580078125	-0.11473407745361328	0		6.017478515625	0.4555921936035156	0		-0.2222650146484375	5.90177099609375	0		
-0.010812460899353027	-0.0012829509973526002	0		0.49592999267578125	-2.389352783203125	0		-0.8945779418945312	0.20800048828125	0		-0.551781494140625	-2.840101806640625	0		1.6692899169921875	-0.4913287963867187	0		3.258537841796875	-0.1198165054321289	0		4.255521484375	-0.10757487487792969	0		6.017025390625	0.4557142639160156	0		-0.22254888916015625	5.90208740234375	0		
0.019737405776977537	0.0018593169450759888	0		0.5053400573730469	-2.39710009765625	0		-0.8850452270507813	0.20729637145996094	0		-0.6113301391601562	-2.83840234375	0		1.6377476806640625	-0.5008661499023438	0		3.26997021484375	-0.1356613006591797	0		4.26604296875	-0.10943865966796874	0		6.01756591796875	0.454849609375	0		-0.20579147338867188	5.9093203125	0		
0.009267485618591309	2.6448699831962583E-4	0		0.4828626098632812	-2.3876376953125	0		-0.8764487915039062	0.21561463928222657	0		-0.5308653564453125	-2.83652685546875	0		1.6451773681640625	-0.516619384765625	0		3.2656708984375	-0.10839331817626953	0		4.2696279296875	-0.10224319458007812	0		6.03412158203125	0.45490643310546874	0		-0.205072998046875	5.908666015625	0		
0.018838432312011717	0.002564295053482056	0		0.49434197998046875	-2.388364501953125	0		-0.890901123046875	0.21308734130859375	0		-0.6163009033203125	-2.820634521484375	0		1.643556640625	-0.5433025512695312	0		3.24908740234375	-0.1310353240966797	0		4.259201171875	-0.09994674682617187	0		6.02074951171875	0.46416061401367187	0		-0.2213807830810547	5.90113037109375	0		
-0.008580286026000977	0.0031024019718170165	0		0.5017887268066407	-2.39805419921875	0		-0.8963381958007812	0.20951913452148438	0		-0.54284423828125	-2.826692626953125	0		1.6449805908203126	-0.5659903564453125	0		3.236761962890625	-0.11468749237060546	0		4.258783203125	-0.09969650268554688	0		6.02429541015625	0.4563268127441406	0		-0.22162010192871093	5.90151123046875	0		
0.023950204849243165	-0.008714505195617676	0		0.5013207092285156	-2.3976845703125	0		-0.9007517700195312	0.20595565795898438	0		-0.6132626342773437	-2.81586279296875	0		1.6044400634765625	-0.5864098510742187	0		3.242313720703125	-0.12243722534179688	0		4.211396484375	-0.09814651489257813	0		6.01491357421875	0.45658450317382815	0		-0.2218369903564453	5.90190234375	0		
-0.009346890449523925	0.003880851984024048	0		0.5008776550292968	-2.397306396484375	0		-0.89206787109375	0.21432012939453124	0		-0.6076875	-2.81048828125	0		1.614890869140625	-0.6121319580078125	0		3.243994140625	-0.113153564453125	0		4.20411279296875	-0.08383053588867187	0		6.01455615234375	0.45679769897460937	0		-0.22203184509277343	5.90230224609375	0		
0.017304027557373047	0.004113285064697265	0		0.5024708862304688	-2.394934326171875	0		-0.8924102172851562	0.2147455291748047	0		-0.597044677734375	-2.798139404296875	0		1.6134437255859375	-0.6247737426757812	0		3.23563623046875	-0.11380014038085938	0		4.20376611328125	-0.0835489501953125	0		6.014220703125	0.45702023315429685	0		-0.20715174865722658	5.911615234375	0		
-8.047900348901749E-5	-0.004378326892852783	0		0.5000609741210937	-2.396533203125	0		-0.90775146484375	0.21226739501953126	0		-0.5813546142578125	-2.781819091796875	0		1.607053466796875	-0.63137939453125	0		3.25329736328125	-0.11460149383544922	0		4.21442626953125	-0.08532875061035156	0		6.03090478515625	0.45714559936523436	0		-0.22236732482910157	5.9031171875	0		
-0.010337823867797852	0.005088274955749512	0		0.4976626281738281	-2.399130126953125	0		-0.9140341186523437	0.21673414611816405	0		-0.6126881103515625	-2.772205322265625	0		1.608578857421875	-0.6540314331054687	0		3.234987060546875	-0.11317449188232422	0		4.1921708984375	-0.07589791870117188	0		6.022603515625	0.4574336242675781	0		-0.18848762512207032	5.9083154296875	0		
-0.014658925056457519	0.0025165131092071535	0		0.49528448486328125	-2.400727783203125	0		-0.842357421875	0.212709716796875	0		-0.5730580444335938	-2.771037353515625	0		1.5991903076171874	-0.6646142578125	0		3.242687744140625	-0.11190693664550781	0		4.1969140625	-0.068631591796875	0		6.01726318359375	0.44970953369140626	0		-0.22167794799804688	5.90193017578125	0		
-9.909790158271789E-4	-0.0031729960441589356	0		0.50791162109375	-2.403423583984375	0		-0.902676513671875	0.2085065155029297	0		-0.5963135375976563	-2.75348046875	0		1.5958546142578125	-0.6682369384765625	0		3.240334228515625	-0.1205766372680664	0		4.201603515625	-0.07136421203613282	0		6.01303076171875	0.4579831237792969	0		-0.2067626953125	5.9122392578125	0		
0.005766714096069336	0.004172544002532959	0		0.5006327514648438	-2.39300146484375	0		-0.82795947265625	0.2084435729980469	0		-0.5925123291015625	-2.7291025390625	0		1.6425076904296876	-0.675180908203125	0		3.277158203125	-0.10249617767333985	0		4.2114072265625	-0.05713080596923828	0		6.0217548828125	0.45817636108398435	0		-0.20492425537109374	5.91062158203125	0		
-0.011498409271240234	0.006657925128936768	0		0.49829046630859375	-2.394621826171875	0		-0.8432012329101563	0.21393414306640626	0		-0.5987603759765625	-2.714674072265625	0		1.6221392822265626	-0.68671142578125	0		3.227859619140625	-0.10487815856933594	0		4.2001435546875	-0.05476953887939453	0		6.025435546875	0.4503995361328125	0		-0.22213217163085938	5.902111328125	0		
-0.005843967914581299	-0.005018487930297851	0		0.5209293212890626	-2.40141650390625	0		-0.8575359497070313	0.20340115356445312	0		-0.5979492797851562	-2.693307861328125	0		1.6097677001953126	-0.7003052978515625	0		3.25259423828125	-0.10373905944824219	0		4.221818359375	-0.06362628173828125	0		6.02517529296875	0.45064285278320315	0		-0.22228590393066405	5.90247705078125	0		
-0.006102275848388672	-0.0046784977912902835	0		0.49364251708984375	-2.39891357421875	0		-0.8577906494140625	0.20375599670410155	0		-0.5961142578125	-2.670970947265625	0		1.6263822021484375	-0.7181015014648438	0		3.241289794921875	-0.11038563537597657	0		4.2046640625	-0.04724848937988281	0		6.0208740234375	0.4429032897949219	0		-0.2024734344482422	5.897693359375	0		
0.02065324592590332	-0.004536972999572754	0		0.504323974609375	-2.404677001953125	0		-0.8580314331054687	0.20408290100097656	0		-0.5802899780273437	-2.65375048828125	0		1.6120958251953126	-0.7227224731445312	0		3.27710107421875	-0.10135070037841797	0		4.2144091796875	-0.04905865478515625	0		6.01568798828125	0.451158447265625	0		-0.20653256225585936	5.91303564453125	0		
-0.002553436994552612	-0.0011054869890213012	0		0.497138427734375	-2.393354248046875	0		-0.8492105712890625	0.21132029724121093	0		-0.5763956298828125	-2.62948486328125	0		1.64680224609375	-0.7316818237304688	0		3.25377783203125	-0.11595924377441406	0		4.21418359375	-0.04882392883300781	0		6.02446728515625	0.45131072998046873	0		-0.20668551635742188	5.91332275390625	0		
